<svg width="24" height="24" viewBox="0 0 24 24" fill="none" xmlns="http://www.w3.org/2000/svg">
<path d="M2.06999 4.6C2.86999 1.14 8.08 1.14 8.87 4.6C9.34 6.63 8.05 8.35 6.93 9.42C6.11 10.2 4.81999 10.19 3.99999 9.42C2.88999 8.35 1.59999 6.63 2.06999 4.6Z" stroke="#292D32" stroke-width="1.5"/>
<path d="M15.07 16.6C15.87 13.14 21.11 13.14 21.91 16.6C22.38 18.63 21.09 20.35 19.96 21.42C19.14 22.2 17.84 22.19 17.02 21.42C15.89 20.35 14.6 18.63 15.07 16.6Z" stroke="#292D32" stroke-width="1.5"/>
<path d="M12 5H14.68C16.53 5 17.39 7.29 16 8.51L8.01001 15.5C6.62001 16.71 7.48001 19 9.32001 19H12" stroke="#292D32" stroke-width="1.5" stroke-linecap="round" stroke-linejoin="round"/>
<path d="M5.48622 5.5H5.49777" stroke="#292D32" stroke-width="2" stroke-linecap="round" stroke-linejoin="round"/>
<path d="M18.4862 17.5H18.4978" stroke="#292D32" stroke-width="2" stroke-linecap="round" stroke-linejoin="round"/>
</svg>
