<svg width="52" height="52" viewBox="0 0 52 52" fill="none" xmlns="http://www.w3.org/2000/svg">
<path d="M30.121 3.77488V7.9105C35.646 7.94138 41.691 7.85363 47.2176 7.94138C47.4126 7.90748 47.6127 7.91951 47.8022 7.97652C47.9916 8.03352 48.1652 8.13392 48.3091 8.26974C48.4529 8.40556 48.5631 8.57307 48.6309 8.75895C48.6987 8.94482 48.7223 9.14395 48.6996 9.3405C48.7874 19.5228 48.6785 30.2868 48.7516 40.4706C48.7191 41.1206 48.7663 42.2874 48.6655 42.9358C48.5371 43.7629 48.1683 43.9221 47.3379 44.0342C46.8731 44.0976 46.0964 44.0895 45.6398 44.1106C41.1027 44.0879 36.569 44.0928 32.032 44.0944H30.1226V48.2332L3.25 44.0911V7.91863L30.121 3.77325" fill="#283C82"/>
<path d="M30.1211 9.46075H47.1836V42.5425H30.1211V38.4069H43.5598V36.3399H30.1211V33.7561H43.5598V31.6875H30.1211V29.1038H43.5598V27.0351H30.1211V24.4514H43.5598V22.3828H30.1211V19.799H43.5598V17.7304H30.1211V15.1466H43.5598V13.078H30.1211V9.46075Z" fill="white"/>
<path d="M13.9312 18.5949C14.9062 18.538 15.8958 18.4974 16.8773 18.4454C17.5647 21.9343 18.2683 25.4183 19.0126 28.8925C19.596 25.3045 20.2427 21.7279 20.8683 18.1464C21.9011 18.1094 22.9331 18.0552 23.964 17.9839C22.7956 22.9921 21.7718 28.0426 20.4962 33.0216C19.6333 33.4718 18.3415 33.0005 17.3177 33.0736C16.6303 29.6514 15.8292 26.2486 15.2133 22.8134C14.6088 26.1625 13.8223 29.4661 13.1301 32.7844C12.1378 32.7324 11.1416 32.6723 10.1417 32.604C9.28372 28.054 8.27622 23.5381 7.4751 18.9784C8.3591 18.9378 9.24797 18.9004 10.132 18.8695C10.665 22.1618 11.2695 25.4394 11.7342 28.7365C12.4622 25.3565 13.2081 21.9749 13.9312 18.5949Z" fill="white"/>
</svg>
