<svg width="270" height="52" viewBox="0 0 270 52" fill="none" xmlns="http://www.w3.org/2000/svg">
<path fill-rule="evenodd" clip-rule="evenodd" d="M37.3686 10.0211C35.2407 10.1011 33.1335 10.4695 31.1046 11.116C29.8787 11.4779 28.6308 11.7608 27.3687 11.9628C26.8602 9.12185 25.3698 6.54976 23.1579 4.69576C20.946 2.84177 18.1531 1.82369 15.267 1.81934V5.92021C17.0429 5.92621 18.7687 6.50949 20.1841 7.58207C21.5996 8.65465 22.6279 10.1584 23.114 11.8665C21.999 11.6627 20.8929 11.413 19.7985 11.1181C17.6808 10.4812 15.4916 10.1127 13.2822 10.0211C5.65045 10.0211 0.91394 16.3057 0.91394 26.4246C0.91394 41.8233 9.25511 51.0277 17.3174 51.0298H17.3215C19.0822 50.9365 20.8117 50.5267 22.4271 49.82C23.4075 49.3799 24.4509 49.0962 25.5192 48.9794C26.5895 49.0961 27.6349 49.3797 28.6174 49.82C30.232 50.5268 31.9608 50.9366 33.7209 51.0298C40.1788 51.0282 46.821 45.1164 49.2046 34.8426H45.0044C42.9894 42.5375 38.2941 46.9274 33.7209 46.9289C32.4526 46.821 31.2116 46.4994 30.0506 45.9775C28.6176 45.3443 27.083 44.9721 25.5192 44.8785C23.958 44.9725 22.4262 45.3447 20.9959 45.9775C19.8319 46.4991 18.5884 46.8208 17.3175 46.9289C11.2699 46.9234 5.01481 39.2554 5.01481 26.4246C5.01481 22.7256 5.82063 14.122 13.2822 14.122C15.1464 14.2214 16.9917 14.5471 18.7773 15.0918C20.8114 15.7001 22.9109 16.0629 25.0312 16.1724H26.0379C28.1245 16.0729 30.1894 15.7034 32.181 15.0734C33.8612 14.5308 35.6053 14.2109 37.3686 14.122C42.7142 14.122 44.7666 18.4384 45.5489 22.0302H49.7413C48.63 15.811 44.9882 10.0211 37.3686 10.0211Z" fill="#4E9B33"/>
<path d="M47.5524 27.2381L52.0462 36.9366L41.4001 35.9791L47.5524 27.2381Z" fill="#4E9B33"/>
<path d="M78.087 13.5818H68.007V19.5578H77.799V24.3098H68.007V34.0298H63.039V8.82978H78.087V13.5818ZM96.8269 31.7978C94.9789 33.6218 92.7229 34.5338 90.0589 34.5338C87.3949 34.5338 85.1389 33.6218 83.2909 31.7978C81.4669 29.9498 80.5549 27.6938 80.5549 25.0298C80.5549 22.3658 81.4669 20.1218 83.2909 18.2978C85.1389 16.4498 87.3949 15.5258 90.0589 15.5258C92.7229 15.5258 94.9789 16.4498 96.8269 18.2978C98.6749 20.1218 99.5989 22.3658 99.5989 25.0298C99.5989 27.6938 98.6749 29.9498 96.8269 31.7978ZM86.5669 28.5938C87.5029 29.5298 88.6669 29.9978 90.0589 29.9978C91.4509 29.9978 92.6149 29.5298 93.5509 28.5938C94.4869 27.6578 94.9549 26.4698 94.9549 25.0298C94.9549 23.5898 94.4869 22.4018 93.5509 21.4658C92.6149 20.5298 91.4509 20.0618 90.0589 20.0618C88.6669 20.0618 87.5029 20.5298 86.5669 21.4658C85.6549 22.4018 85.1989 23.5898 85.1989 25.0298C85.1989 26.4698 85.6549 27.6578 86.5669 28.5938ZM118.202 31.7978C116.354 33.6218 114.098 34.5338 111.434 34.5338C108.77 34.5338 106.514 33.6218 104.666 31.7978C102.842 29.9498 101.93 27.6938 101.93 25.0298C101.93 22.3658 102.842 20.1218 104.666 18.2978C106.514 16.4498 108.77 15.5258 111.434 15.5258C114.098 15.5258 116.354 16.4498 118.202 18.2978C120.05 20.1218 120.974 22.3658 120.974 25.0298C120.974 27.6938 120.05 29.9498 118.202 31.7978ZM107.942 28.5938C108.878 29.5298 110.042 29.9978 111.434 29.9978C112.826 29.9978 113.99 29.5298 114.926 28.5938C115.862 27.6578 116.33 26.4698 116.33 25.0298C116.33 23.5898 115.862 22.4018 114.926 21.4658C113.99 20.5298 112.826 20.0618 111.434 20.0618C110.042 20.0618 108.878 20.5298 107.942 21.4658C107.03 22.4018 106.574 23.5898 106.574 25.0298C106.574 26.4698 107.03 27.6578 107.942 28.5938ZM137.885 8.82978H142.529V34.0298H137.885V31.9058C136.517 33.6578 134.573 34.5338 132.053 34.5338C129.629 34.5338 127.553 33.6218 125.825 31.7978C124.121 29.9498 123.269 27.6938 123.269 25.0298C123.269 22.3658 124.121 20.1218 125.825 18.2978C127.553 16.4498 129.629 15.5258 132.053 15.5258C134.573 15.5258 136.517 16.4018 137.885 18.1538V8.82978ZM129.317 28.7018C130.277 29.6378 131.477 30.1058 132.917 30.1058C134.357 30.1058 135.545 29.6378 136.481 28.7018C137.417 27.7418 137.885 26.5178 137.885 25.0298C137.885 23.5418 137.417 22.3298 136.481 21.3938C135.545 20.4338 134.357 19.9538 132.917 19.9538C131.477 19.9538 130.277 20.4338 129.317 21.3938C128.381 22.3298 127.913 23.5418 127.913 25.0298C127.913 26.5178 128.381 27.7418 129.317 28.7018ZM150.919 21.1418C150.919 21.6218 151.231 22.0178 151.855 22.3298C152.503 22.6178 153.283 22.8818 154.195 23.1218C155.107 23.3378 156.019 23.6258 156.931 23.9858C157.843 24.3218 158.611 24.8978 159.235 25.7138C159.883 26.5298 160.207 27.5498 160.207 28.7738C160.207 30.6218 159.511 32.0498 158.119 33.0578C156.751 34.0418 155.035 34.5338 152.971 34.5338C149.275 34.5338 146.755 33.1058 145.411 30.2498L149.443 27.9818C149.971 29.5418 151.147 30.3218 152.971 30.3218C154.627 30.3218 155.455 29.8058 155.455 28.7738C155.455 28.2938 155.131 27.9098 154.483 27.6218C153.859 27.3098 153.091 27.0338 152.179 26.7938C151.267 26.5538 150.355 26.2538 149.443 25.8938C148.531 25.5338 147.751 24.9698 147.103 24.2018C146.479 23.4098 146.167 22.4258 146.167 21.2498C146.167 19.4738 146.815 18.0818 148.111 17.0738C149.431 16.0418 151.063 15.5258 153.007 15.5258C154.471 15.5258 155.803 15.8618 157.003 16.5338C158.203 17.1818 159.151 18.1178 159.847 19.3418L155.887 21.5018C155.311 20.2778 154.351 19.6658 153.007 19.6658C152.407 19.6658 151.903 19.7978 151.495 20.0618C151.111 20.3258 150.919 20.6858 150.919 21.1418ZM173.202 15.5258C175.17 15.5258 176.79 16.1858 178.062 17.5058C179.358 18.8258 180.006 20.6498 180.006 22.9778V34.0298H175.362V23.5538C175.362 22.3538 175.038 21.4418 174.39 20.8178C173.742 20.1698 172.878 19.8458 171.798 19.8458C170.598 19.8458 169.638 20.2178 168.918 20.9618C168.198 21.7058 167.838 22.8218 167.838 24.3098V34.0298H163.194V8.82978H167.838V18.0458C168.966 16.3658 170.754 15.5258 173.202 15.5258ZM197.651 16.0298H202.295V34.0298H197.651V31.9058C196.259 33.6578 194.303 34.5338 191.783 34.5338C189.383 34.5338 187.319 33.6218 185.591 31.7978C183.887 29.9498 183.035 27.6938 183.035 25.0298C183.035 22.3658 183.887 20.1218 185.591 18.2978C187.319 16.4498 189.383 15.5258 191.783 15.5258C194.303 15.5258 196.259 16.4018 197.651 18.1538V16.0298ZM189.083 28.7018C190.019 29.6378 191.207 30.1058 192.647 30.1058C194.087 30.1058 195.275 29.6378 196.211 28.7018C197.171 27.7418 197.651 26.5178 197.651 25.0298C197.651 23.5418 197.171 22.3298 196.211 21.3938C195.275 20.4338 194.087 19.9538 192.647 19.9538C191.207 19.9538 190.019 20.4338 189.083 21.3938C188.147 22.3298 187.679 23.5418 187.679 25.0298C187.679 26.5178 188.147 27.7418 189.083 28.7018ZM211.151 19.1258C211.583 17.9738 212.291 17.1098 213.275 16.5338C214.283 15.9578 215.399 15.6698 216.623 15.6698V20.8538C215.207 20.6858 213.935 20.9738 212.807 21.7178C211.703 22.4618 211.151 23.6978 211.151 25.4258V34.0298H206.507V16.0298H211.151V19.1258ZM221.643 13.8698C220.875 13.8698 220.203 13.5938 219.627 13.0418C219.075 12.4658 218.799 11.7938 218.799 11.0258C218.799 10.2578 219.075 9.58578 219.627 9.00978C220.203 8.43378 220.875 8.14578 221.643 8.14578C222.435 8.14578 223.107 8.43378 223.659 9.00978C224.235 9.58578 224.523 10.2578 224.523 11.0258C224.523 11.7938 224.235 12.4658 223.659 13.0418C223.107 13.5938 222.435 13.8698 221.643 13.8698ZM219.339 34.0298V16.0298H223.983V34.0298H219.339ZM238.241 15.5258C240.209 15.5258 241.829 16.1858 243.101 17.5058C244.397 18.8258 245.045 20.6498 245.045 22.9778V34.0298H240.401V23.5538C240.401 22.3538 240.077 21.4418 239.429 20.8178C238.781 20.1698 237.917 19.8458 236.837 19.8458C235.637 19.8458 234.677 20.2178 233.957 20.9618C233.237 21.7058 232.877 22.8218 232.877 24.3098V34.0298H228.233V16.0298H232.877V18.0458C234.005 16.3658 235.793 15.5258 238.241 15.5258ZM262.798 16.0298H267.334V33.1658C267.334 35.9498 266.41 38.0738 264.562 39.5378C262.738 41.0018 260.53 41.7338 257.938 41.7338C255.994 41.7338 254.278 41.3618 252.79 40.6178C251.326 39.8738 250.198 38.7818 249.406 37.3418L253.366 35.0738C254.278 36.7538 255.85 37.5938 258.082 37.5938C259.546 37.5938 260.698 37.2098 261.538 36.4418C262.378 35.6738 262.798 34.5818 262.798 33.1658V31.2218C261.43 33.0458 259.51 33.9578 257.038 33.9578C254.494 33.9578 252.358 33.0698 250.63 31.2938C248.926 29.4938 248.074 27.3098 248.074 24.7418C248.074 22.1978 248.938 20.0258 250.666 18.2258C252.394 16.4258 254.518 15.5258 257.038 15.5258C259.51 15.5258 261.43 16.4378 262.798 18.2618V16.0298ZM254.122 28.3058C255.082 29.2178 256.294 29.6738 257.758 29.6738C259.222 29.6738 260.422 29.2178 261.358 28.3058C262.318 27.3698 262.798 26.1818 262.798 24.7418C262.798 23.3258 262.318 22.1618 261.358 21.2498C260.422 20.3138 259.222 19.8458 257.758 19.8458C256.294 19.8458 255.082 20.3138 254.122 21.2498C253.186 22.1618 252.718 23.3258 252.718 24.7418C252.718 26.1818 253.186 27.3698 254.122 28.3058Z" fill="#3A3A3A"/>
<path d="M69.339 39.6298V48.0298H68.499V40.9018L65.559 45.8218H65.439L62.499 40.9018V48.0298H61.659V39.6298H62.703L65.499 44.3098L68.295 39.6298H69.339ZM87.8046 46.9138C86.9646 47.7538 85.9366 48.1738 84.7206 48.1738C83.5046 48.1738 82.4766 47.7538 81.6366 46.9138C80.7966 46.0658 80.3766 45.0378 80.3766 43.8298C80.3766 42.6218 80.7966 41.5978 81.6366 40.7578C82.4766 39.9098 83.5046 39.4858 84.7206 39.4858C85.9366 39.4858 86.9646 39.9098 87.8046 40.7578C88.6446 41.5978 89.0646 42.6218 89.0646 43.8298C89.0646 45.0378 88.6446 46.0658 87.8046 46.9138ZM82.2246 46.3378C82.8966 47.0178 83.7286 47.3578 84.7206 47.3578C85.7126 47.3578 86.5446 47.0178 87.2166 46.3378C87.8886 45.6498 88.2246 44.8138 88.2246 43.8298C88.2246 42.8458 87.8886 42.0138 87.2166 41.3338C86.5446 40.6458 85.7126 40.3018 84.7206 40.3018C83.7286 40.3018 82.8966 40.6458 82.2246 41.3338C81.5526 42.0138 81.2166 42.8458 81.2166 43.8298C81.2166 44.8138 81.5526 45.6498 82.2246 46.3378ZM102.436 48.1738C101.668 48.1738 101.008 47.9938 100.456 47.6338C99.9125 47.2658 99.5325 46.7618 99.3165 46.1218L100.036 45.7018C100.188 46.2218 100.468 46.6298 100.876 46.9258C101.284 47.2138 101.808 47.3578 102.448 47.3578C103.072 47.3578 103.556 47.2218 103.9 46.9498C104.252 46.6698 104.428 46.3018 104.428 45.8458C104.428 45.4058 104.268 45.0738 103.948 44.8498C103.628 44.6258 103.1 44.3938 102.364 44.1538C101.492 43.8658 100.916 43.6338 100.636 43.4578C99.9965 43.0738 99.6765 42.5178 99.6765 41.7898C99.6765 41.0778 99.9245 40.5178 100.42 40.1098C100.916 39.6938 101.528 39.4858 102.256 39.4858C102.912 39.4858 103.48 39.6578 103.96 40.0018C104.44 40.3378 104.796 40.7698 105.028 41.2978L104.32 41.6938C103.936 40.7658 103.248 40.3018 102.256 40.3018C101.736 40.3018 101.316 40.4298 100.996 40.6858C100.676 40.9418 100.516 41.2978 100.516 41.7538C100.516 42.1698 100.66 42.4818 100.948 42.6898C101.236 42.8978 101.712 43.1098 102.376 43.3258C102.68 43.4298 102.896 43.5058 103.024 43.5538C103.16 43.5938 103.352 43.6658 103.6 43.7698C103.856 43.8658 104.044 43.9538 104.164 44.0338C104.284 44.1058 104.428 44.2098 104.596 44.3458C104.772 44.4738 104.896 44.6058 104.968 44.7418C105.048 44.8698 105.116 45.0298 105.172 45.2218C105.236 45.4058 105.268 45.6058 105.268 45.8218C105.268 46.5338 105.008 47.1058 104.488 47.5378C103.968 47.9618 103.284 48.1738 102.436 48.1738ZM120.176 48.1738C118.904 48.1738 117.852 47.7538 117.02 46.9138C116.188 46.0738 115.772 45.0458 115.772 43.8298C115.772 42.6138 116.188 41.5858 117.02 40.7458C117.852 39.9058 118.904 39.4858 120.176 39.4858C120.952 39.4858 121.664 39.6738 122.312 40.0498C122.96 40.4178 123.46 40.9178 123.812 41.5498L123.068 41.9818C122.804 41.4698 122.412 41.0618 121.892 40.7578C121.372 40.4538 120.8 40.3018 120.176 40.3018C119.128 40.3018 118.272 40.6418 117.608 41.3218C116.944 42.0018 116.612 42.8378 116.612 43.8298C116.612 44.8218 116.944 45.6578 117.608 46.3378C118.272 47.0178 119.128 47.3578 120.176 47.3578C120.8 47.3578 121.372 47.2058 121.892 46.9018C122.412 46.5978 122.804 46.1898 123.068 45.6778L123.812 46.0978C123.468 46.7298 122.968 47.2338 122.312 47.6098C121.664 47.9858 120.952 48.1738 120.176 48.1738ZM141.741 46.9138C140.901 47.7538 139.873 48.1738 138.657 48.1738C137.441 48.1738 136.413 47.7538 135.573 46.9138C134.733 46.0658 134.313 45.0378 134.313 43.8298C134.313 42.6218 134.733 41.5978 135.573 40.7578C136.413 39.9098 137.441 39.4858 138.657 39.4858C139.873 39.4858 140.901 39.9098 141.741 40.7578C142.581 41.5978 143.001 42.6218 143.001 43.8298C143.001 45.0378 142.581 46.0658 141.741 46.9138ZM136.161 46.3378C136.833 47.0178 137.665 47.3578 138.657 47.3578C139.649 47.3578 140.481 47.0178 141.153 46.3378C141.825 45.6498 142.161 44.8138 142.161 43.8298C142.161 42.8458 141.825 42.0138 141.153 41.3338C140.481 40.6458 139.649 40.3018 138.657 40.3018C137.665 40.3018 136.833 40.6458 136.161 41.3338C135.489 42.0138 135.153 42.8458 135.153 43.8298C135.153 44.8138 135.489 45.6498 136.161 46.3378ZM155.511 48.0298L153.075 39.6298H153.963L156.039 46.8898L158.223 39.6298H159.207L161.391 46.8898L163.467 39.6298H164.355L161.919 48.0298H160.911L158.715 40.7338L156.519 48.0298H155.511Z" fill="#3A3A3A"/>
</svg>
